<mxfile host="app.diagrams.net" agent="Mozilla/5.0 (Windows NT 10.0; Win64; x64) AppleWebKit/537.36 (KHTML, like Gecko) Chrome/127.0.0.0 Safari/537.36" version="24.7.4">
  <diagram name="Page-1" id="vhs3pV7maKaz41Letp2S">
    <mxGraphModel dx="1050" dy="1372" grid="1" gridSize="10" guides="1" tooltips="1" connect="1" arrows="1" fold="1" page="1" pageScale="1" pageWidth="1100" pageHeight="850" math="0" shadow="0">
      <root>
        <mxCell id="0" />
        <mxCell id="1" parent="0" />
        <mxCell id="Byewc4a8WY_J0uslb-Vc-2" value="" style="rounded=0;whiteSpace=wrap;html=1;" vertex="1" parent="1">
          <mxGeometry x="30" y="-14" width="1040" height="922" as="geometry" />
        </mxCell>
        <mxCell id="Byewc4a8WY_J0uslb-Vc-3" value="Block" style="verticalAlign=top;align=left;spacingTop=8;spacingLeft=2;spacingRight=12;shape=cube;size=10;direction=south;fontStyle=4;html=1;whiteSpace=wrap;" vertex="1" parent="1">
          <mxGeometry x="650" y="60" width="340" height="235" as="geometry" />
        </mxCell>
        <mxCell id="Byewc4a8WY_J0uslb-Vc-4" value="Block" style="verticalAlign=top;align=left;spacingTop=8;spacingLeft=2;spacingRight=12;shape=cube;size=10;direction=east;fontStyle=4;html=1;whiteSpace=wrap;" vertex="1" parent="1">
          <mxGeometry x="370" y="80" width="200" height="230" as="geometry" />
        </mxCell>
        <mxCell id="Byewc4a8WY_J0uslb-Vc-5" value="Block" style="verticalAlign=top;align=left;spacingTop=8;spacingLeft=2;spacingRight=12;shape=cube;size=10;direction=east;fontStyle=4;html=1;whiteSpace=wrap;" vertex="1" parent="1">
          <mxGeometry x="90" y="80" width="230" height="180" as="geometry" />
        </mxCell>
        <mxCell id="Byewc4a8WY_J0uslb-Vc-6" value="Block" style="verticalAlign=top;align=left;spacingTop=8;spacingLeft=2;spacingRight=12;shape=cube;size=10;direction=east;fontStyle=4;html=1;whiteSpace=wrap;" vertex="1" parent="1">
          <mxGeometry x="290" y="370" width="180" height="220" as="geometry" />
        </mxCell>
        <mxCell id="Byewc4a8WY_J0uslb-Vc-7" value="Block" style="verticalAlign=top;align=left;spacingTop=8;spacingLeft=2;spacingRight=12;shape=cube;size=10;direction=south;fontStyle=4;html=1;whiteSpace=wrap;" vertex="1" parent="1">
          <mxGeometry x="650" y="670" width="240" height="160" as="geometry" />
        </mxCell>
        <mxCell id="Byewc4a8WY_J0uslb-Vc-8" value="Block" style="verticalAlign=top;align=left;spacingTop=8;spacingLeft=2;spacingRight=12;shape=cube;size=10;direction=south;fontStyle=4;html=1;whiteSpace=wrap;" vertex="1" parent="1">
          <mxGeometry x="120" y="120" width="180" height="120" as="geometry" />
        </mxCell>
        <mxCell id="Byewc4a8WY_J0uslb-Vc-9" value="" style="html=1;dropTarget=0;whiteSpace=wrap;direction=south;" vertex="1" parent="1">
          <mxGeometry x="420" y="115" width="115" height="180" as="geometry" />
        </mxCell>
        <mxCell id="Byewc4a8WY_J0uslb-Vc-10" value="" style="shape=module;jettyWidth=8;jettyHeight=4;" vertex="1" parent="Byewc4a8WY_J0uslb-Vc-9">
          <mxGeometry x="1" width="20" height="20" relative="1" as="geometry">
            <mxPoint x="-27" y="7" as="offset" />
          </mxGeometry>
        </mxCell>
        <mxCell id="Byewc4a8WY_J0uslb-Vc-11" value="" style="shape=umlLifeline;perimeter=lifelinePerimeter;whiteSpace=wrap;html=1;container=1;dropTarget=0;collapsible=0;recursiveResize=0;outlineConnect=0;portConstraint=eastwest;newEdgeStyle={&quot;curved&quot;:0,&quot;rounded&quot;:0};" vertex="1" parent="1">
          <mxGeometry x="530" y="150" width="15" height="20" as="geometry" />
        </mxCell>
        <mxCell id="Byewc4a8WY_J0uslb-Vc-12" value="" style="rounded=0;orthogonalLoop=1;jettySize=auto;html=1;endArrow=halfCircle;endFill=0;endSize=6;strokeWidth=1;sketch=0;" edge="1" target="Byewc4a8WY_J0uslb-Vc-14" parent="1">
          <mxGeometry relative="1" as="geometry">
            <mxPoint x="560" y="245" as="sourcePoint" />
          </mxGeometry>
        </mxCell>
        <mxCell id="Byewc4a8WY_J0uslb-Vc-13" value="" style="rounded=0;orthogonalLoop=1;jettySize=auto;html=1;endArrow=oval;endFill=0;sketch=0;sourcePerimeterSpacing=0;targetPerimeterSpacing=0;endSize=10;" edge="1" target="Byewc4a8WY_J0uslb-Vc-14" parent="1">
          <mxGeometry relative="1" as="geometry">
            <mxPoint x="520" y="245" as="sourcePoint" />
          </mxGeometry>
        </mxCell>
        <mxCell id="Byewc4a8WY_J0uslb-Vc-14" value="" style="ellipse;whiteSpace=wrap;html=1;align=center;aspect=fixed;fillColor=none;strokeColor=none;resizable=0;perimeter=centerPerimeter;rotatable=0;allowArrows=0;points=[];outlineConnect=1;" vertex="1" parent="1">
          <mxGeometry x="535" y="240" width="10" height="10" as="geometry" />
        </mxCell>
        <mxCell id="Byewc4a8WY_J0uslb-Vc-15" value="" style="html=1;dropTarget=0;whiteSpace=wrap;direction=west;" vertex="1" parent="1">
          <mxGeometry x="830" y="112.5" width="140" height="57.5" as="geometry" />
        </mxCell>
        <mxCell id="Byewc4a8WY_J0uslb-Vc-16" value="" style="shape=module;jettyWidth=8;jettyHeight=4;" vertex="1" parent="Byewc4a8WY_J0uslb-Vc-15">
          <mxGeometry x="1" width="20" height="20" relative="1" as="geometry">
            <mxPoint x="-27" y="7" as="offset" />
          </mxGeometry>
        </mxCell>
        <mxCell id="Byewc4a8WY_J0uslb-Vc-17" value="" style="html=1;dropTarget=0;whiteSpace=wrap;direction=west;" vertex="1" parent="1">
          <mxGeometry x="830" y="216.25" width="140" height="57.5" as="geometry" />
        </mxCell>
        <mxCell id="Byewc4a8WY_J0uslb-Vc-18" value="" style="shape=module;jettyWidth=8;jettyHeight=4;" vertex="1" parent="Byewc4a8WY_J0uslb-Vc-17">
          <mxGeometry x="1" width="20" height="20" relative="1" as="geometry">
            <mxPoint x="-27" y="7" as="offset" />
          </mxGeometry>
        </mxCell>
        <mxCell id="Byewc4a8WY_J0uslb-Vc-19" value="" style="html=1;dropTarget=0;whiteSpace=wrap;direction=west;" vertex="1" parent="1">
          <mxGeometry x="660" y="112.5" width="140" height="57.5" as="geometry" />
        </mxCell>
        <mxCell id="Byewc4a8WY_J0uslb-Vc-20" value="" style="shape=module;jettyWidth=8;jettyHeight=4;" vertex="1" parent="Byewc4a8WY_J0uslb-Vc-19">
          <mxGeometry x="1" width="20" height="20" relative="1" as="geometry">
            <mxPoint x="-27" y="7" as="offset" />
          </mxGeometry>
        </mxCell>
        <mxCell id="Byewc4a8WY_J0uslb-Vc-21" value="" style="html=1;dropTarget=0;whiteSpace=wrap;direction=west;" vertex="1" parent="1">
          <mxGeometry x="660" y="216.25" width="140" height="57.5" as="geometry" />
        </mxCell>
        <mxCell id="Byewc4a8WY_J0uslb-Vc-22" value="" style="shape=module;jettyWidth=8;jettyHeight=4;" vertex="1" parent="Byewc4a8WY_J0uslb-Vc-21">
          <mxGeometry x="1" width="20" height="20" relative="1" as="geometry">
            <mxPoint x="-27" y="7" as="offset" />
          </mxGeometry>
        </mxCell>
        <mxCell id="Byewc4a8WY_J0uslb-Vc-23" value="Block" style="verticalAlign=top;align=left;spacingTop=8;spacingLeft=2;spacingRight=12;shape=cube;size=10;direction=south;fontStyle=4;html=1;whiteSpace=wrap;" vertex="1" parent="1">
          <mxGeometry x="650" y="350" width="340" height="235" as="geometry" />
        </mxCell>
        <mxCell id="Byewc4a8WY_J0uslb-Vc-24" value="" style="html=1;dropTarget=0;whiteSpace=wrap;direction=west;" vertex="1" parent="1">
          <mxGeometry x="660" y="396" width="140" height="54" as="geometry" />
        </mxCell>
        <mxCell id="Byewc4a8WY_J0uslb-Vc-25" value="" style="shape=module;jettyWidth=8;jettyHeight=4;" vertex="1" parent="Byewc4a8WY_J0uslb-Vc-24">
          <mxGeometry x="1" width="20" height="20" relative="1" as="geometry">
            <mxPoint x="-27" y="7" as="offset" />
          </mxGeometry>
        </mxCell>
        <mxCell id="Byewc4a8WY_J0uslb-Vc-26" value="" style="html=1;dropTarget=0;whiteSpace=wrap;direction=west;" vertex="1" parent="1">
          <mxGeometry x="830" y="396" width="140" height="57.5" as="geometry" />
        </mxCell>
        <mxCell id="Byewc4a8WY_J0uslb-Vc-27" value="" style="shape=module;jettyWidth=8;jettyHeight=4;" vertex="1" parent="Byewc4a8WY_J0uslb-Vc-26">
          <mxGeometry x="1" width="20" height="20" relative="1" as="geometry">
            <mxPoint x="-27" y="7" as="offset" />
          </mxGeometry>
        </mxCell>
        <mxCell id="Byewc4a8WY_J0uslb-Vc-28" value="" style="html=1;dropTarget=0;whiteSpace=wrap;direction=west;" vertex="1" parent="1">
          <mxGeometry x="660" y="500" width="140" height="54" as="geometry" />
        </mxCell>
        <mxCell id="Byewc4a8WY_J0uslb-Vc-29" value="" style="shape=module;jettyWidth=8;jettyHeight=4;" vertex="1" parent="Byewc4a8WY_J0uslb-Vc-28">
          <mxGeometry x="1" width="20" height="20" relative="1" as="geometry">
            <mxPoint x="-27" y="7" as="offset" />
          </mxGeometry>
        </mxCell>
        <mxCell id="Byewc4a8WY_J0uslb-Vc-30" value="" style="html=1;dropTarget=0;whiteSpace=wrap;direction=west;" vertex="1" parent="1">
          <mxGeometry x="830" y="496.5" width="140" height="57.5" as="geometry" />
        </mxCell>
        <mxCell id="Byewc4a8WY_J0uslb-Vc-31" value="" style="shape=module;jettyWidth=8;jettyHeight=4;" vertex="1" parent="Byewc4a8WY_J0uslb-Vc-30">
          <mxGeometry x="1" width="20" height="20" relative="1" as="geometry">
            <mxPoint x="-27" y="7" as="offset" />
          </mxGeometry>
        </mxCell>
        <mxCell id="Byewc4a8WY_J0uslb-Vc-32" value="" style="html=1;dropTarget=0;whiteSpace=wrap;direction=west;" vertex="1" parent="1">
          <mxGeometry x="680" y="720" width="140" height="54" as="geometry" />
        </mxCell>
        <mxCell id="Byewc4a8WY_J0uslb-Vc-33" value="" style="shape=module;jettyWidth=8;jettyHeight=4;" vertex="1" parent="Byewc4a8WY_J0uslb-Vc-32">
          <mxGeometry x="1" width="20" height="20" relative="1" as="geometry">
            <mxPoint x="-27" y="7" as="offset" />
          </mxGeometry>
        </mxCell>
      </root>
    </mxGraphModel>
  </diagram>
</mxfile>
